<svg width="187" height="189" viewBox="0 0 187 189" fill="none" xmlns="http://www.w3.org/2000/svg">
<path fill-rule="evenodd" clip-rule="evenodd" d="M0 4.96248L2.594 2.36849C5.182 -0.219511 5.224 -0.224515 17.844 0.333485C48.349 1.68249 73.539 13.8835 91.369 35.9465L94.111 39.3395L95.771 36.9465C104.349 24.5745 121.793 12.0065 138.638 6.06047C155.113 0.246475 179.324 -1.9335 184.139 1.9645L186.5 3.87648L186.783 71.7145C186.938 109.027 186.819 140.557 186.518 141.785C185.761 144.871 181.042 147.053 175.122 147.053C168.294 147.053 156.31 148.801 147.145 151.135C129.56 155.612 112.304 167.353 102.854 181.269C100.652 184.512 97.779 187.652 96.47 188.249C92.819 189.912 88.578 187.63 85.019 182.084C83.34 179.467 79.386 174.878 76.233 171.886C60.271 156.744 42.147 149.445 15.073 147.258C5.041 146.449 3.424 146.061 1.823 144.084C0.0989981 141.954 0 138.131 0 73.3975V4.96248ZM16 131.73V73.3915V15.0535H18.369C19.672 15.0535 24.699 15.7445 29.539 16.5885C50.152 20.1825 69.001 31.5405 80.677 47.4015L85 53.2735V106.36V159.446L81.75 156.35C69.745 144.913 47.919 135.738 26.25 133.017L16 131.73ZM128.396 27.5925C136.131 22.7795 150.667 17.4705 159.758 16.1385C162.916 15.6755 166.738 15.2425 168.25 15.1755L171 15.0535V73.3935V131.732L161.285 132.926C138.979 135.668 121.204 142.627 107.425 154.014L102.5 158.084L102.241 106.923L101.982 55.7605L104.596 51.2995C108.697 44.3005 120.602 32.4425 128.396 27.5925Z" fill="#34362D"/>
</svg>
